<svg width="128" height="45" viewBox="0 0 128 45" fill="none" xmlns="http://www.w3.org/2000/svg">
<g clip-path="url(#clip0_935_1783)">
<path d="M23.8115 40.0446V44.7863H17.1902V39.2329C17.1902 32.7397 18.3009 29.8348 20.9067 24.196L26.5882 11.8076L31.5436 16.7202L26.5882 27.4426C24.4523 32.0562 23.8115 34.7048 23.8115 40.0446Z" fill="url(#paint0_linear_935_1783)"/>
<path d="M37.0543 4.84441L33.9785 11.5512L28.9805 6.59586C29.8348 4.71626 30.5183 2.83664 31.2873 0.957031H38.763L37.0543 4.84441Z" fill="url(#paint1_linear_935_1783)"/>
<path fill-rule="evenodd" clip-rule="evenodd" d="M26.674 4.28922C23.2138 0.829023 17.6177 0.871741 14.2002 4.33194C10.4837 8.04842 6.76718 11.7649 3.05067 15.4387C0.316686 18.1727 0.273968 22.6154 3.05067 25.3494C6.76718 29.0659 10.5264 32.7824 14.2429 36.4989C17.7031 39.9591 23.2992 40.0018 26.7594 36.5416L36.6701 26.6309C40.0876 23.2135 40.0876 17.6601 36.6701 14.2426L26.674 4.28922ZM16.6351 9.3727C18.6856 7.27949 22.0604 7.27949 24.1536 9.32998L31.5012 16.6776C33.5517 18.728 33.5517 22.0601 31.5012 24.1106L24.1536 31.4581C22.0604 33.5513 18.6856 33.5086 16.6351 31.4154C13.8157 28.5533 10.9109 25.6911 8.04874 22.829C6.68175 21.462 6.68175 19.2407 8.04874 17.8737C10.9109 15.0543 13.8157 12.2348 16.6351 9.3727Z" fill="white"/>
<path d="M17.0623 44.8291V40.899C17.0623 35.5592 16.4215 32.9106 14.2856 28.2543L3.81958 5.65625H11.039L19.9244 25.0077C22.5303 30.6465 23.6409 33.5941 23.6409 40.0446V44.8291H17.0623Z" fill="url(#paint2_linear_935_1783)"/>
<path d="M74.7986 22.5714C76.7994 23.7363 77.7998 25.4945 77.7998 27.8462C77.7998 29.8022 77.1147 31.4066 75.7446 32.6593C74.3746 33.9121 72.6892 34.5385 70.6884 34.5385H61V11.4615H70.0034C71.9606 11.4615 73.6025 12.0769 74.9291 13.3077C76.2775 14.5165 76.9516 16.0659 76.9516 17.956C76.9516 19.8681 76.234 21.4066 74.7986 22.5714ZM70.0034 15.7143H65.5017V20.7912H70.0034C70.6993 20.7912 71.2756 20.5495 71.7323 20.0659C72.2107 19.5824 72.4499 18.978 72.4499 18.2527C72.4499 17.5275 72.2216 16.9231 71.7649 16.4396C71.3082 15.956 70.721 15.7143 70.0034 15.7143ZM70.6884 30.2857C71.4496 30.2857 72.0802 30.033 72.5804 29.5275C73.0806 29 73.3307 28.3407 73.3307 27.5494C73.3307 26.7802 73.0806 26.1429 72.5804 25.6374C72.0802 25.1099 71.4496 24.8462 70.6884 24.8462H65.5017V30.2857H70.6884Z" fill="white"/>
<path d="M103.096 11.4615V34.5385H98.6272V19.5714L92.2009 30.2857H91.6789L85.2526 19.6044V34.5385H80.7509V11.4615H85.3831L91.9399 22.3736L98.4641 11.4615H103.096Z" fill="white"/>
<path d="M118.181 35C114.745 35 111.907 33.8462 109.667 31.5385C107.427 29.2308 106.307 26.3846 106.307 23C106.307 19.5934 107.427 16.7473 109.667 14.4615C111.907 12.1538 114.745 11 118.181 11C120.247 11 122.15 11.4945 123.89 12.4835C125.651 13.4506 127.021 14.7692 128 16.4396L124.118 18.7143C123.553 17.6813 122.748 16.8791 121.704 16.3077C120.66 15.7143 119.486 15.4176 118.181 15.4176C115.963 15.4176 114.169 16.1209 112.799 17.5275C111.45 18.9341 110.776 20.7582 110.776 23C110.776 25.2198 111.45 27.033 112.799 28.4396C114.169 29.8462 115.963 30.5494 118.181 30.5494C119.486 30.5494 120.66 30.2637 121.704 29.6923C122.77 29.0989 123.574 28.2967 124.118 27.2857L128 29.5604C127.021 31.2308 125.662 32.5604 123.922 33.5495C122.183 34.5165 120.269 35 118.181 35Z" fill="white"/>
</g>
<defs>
<linearGradient id="paint0_linear_935_1783" x1="24.3835" y1="0.977656" x2="24.3835" y2="44.82" gradientUnits="userSpaceOnUse">
<stop stop-color="#FFC700"/>
<stop offset="0.5356" stop-color="#9224FF"/>
</linearGradient>
<linearGradient id="paint1_linear_935_1783" x1="33.8725" y1="0.978049" x2="33.8725" y2="44.8203" gradientUnits="userSpaceOnUse">
<stop stop-color="#FFC700"/>
<stop offset="0.5356" stop-color="#9224FF"/>
</linearGradient>
<linearGradient id="paint2_linear_935_1783" x1="13.7474" y1="4.83739" x2="13.7474" y2="44.0059" gradientUnits="userSpaceOnUse">
<stop stop-color="#FFC700"/>
<stop offset="1" stop-color="#9224FF"/>
</linearGradient>
<clipPath id="clip0_935_1783">
<rect width="128" height="45" fill="white"/>
</clipPath>
</defs>
</svg>
