<svg width="256" height="256" viewBox="0 0 256 256" fill="none" xmlns="http://www.w3.org/2000/svg">
<path d="M148.328 221.826V247.766H111.975V217.386C111.975 181.865 118.073 165.974 132.379 135.127L163.573 67.3564L190.779 94.2309L163.573 152.888C151.846 178.126 148.328 192.615 148.328 221.826Z" fill="url(#paint0_linear_2341_12591)"/>
<path d="M221.039 29.2659L204.152 65.9553L176.711 38.8472C181.402 28.5648 185.154 18.2824 189.376 8H230.42L221.039 29.2659Z" fill="url(#paint1_linear_2341_12591)"/>
<path fill-rule="evenodd" clip-rule="evenodd" d="M164.046 26.2259C145.048 7.29696 114.324 7.53065 95.5605 26.4596C75.1557 46.7907 54.7509 67.1218 34.346 87.2192C19.3355 102.175 19.101 126.479 34.346 141.436C54.7509 161.767 75.3902 182.098 95.7951 202.429C114.793 221.358 145.517 221.592 164.515 202.663L218.928 148.446C237.691 129.751 237.691 99.3711 218.928 80.6759L164.046 26.2259ZM108.929 54.0351C120.187 42.5842 138.716 42.5842 150.208 53.8014L190.549 93.9963C201.806 105.213 201.806 123.441 190.549 134.658L150.208 174.853C138.716 186.304 120.187 186.071 108.929 174.62C93.4497 158.962 77.5011 143.305 61.787 127.648C54.2818 120.17 54.2818 108.018 61.787 100.54C77.5011 85.116 93.4497 69.6924 108.929 54.0351Z" fill="#272B32"/>
<path d="M111.279 248.001V226.501C111.279 197.29 107.761 182.801 96.0342 157.329L38.5723 33.7061H78.2093L126.993 139.568C141.3 170.415 147.398 186.54 147.398 221.827V248.001H111.279Z" fill="url(#paint2_linear_2341_12591)"/>
<defs>
<linearGradient id="paint0_linear_2341_12591" x1="151.468" y1="8.11119" x2="151.468" y2="247.951" gradientUnits="userSpaceOnUse">
<stop stop-color="#FFC700"/>
<stop offset="0.5356" stop-color="#9224FF"/>
</linearGradient>
<linearGradient id="paint1_linear_2341_12591" x1="203.57" y1="8.11498" x2="203.57" y2="247.954" gradientUnits="userSpaceOnUse">
<stop stop-color="#FFC700"/>
<stop offset="0.5356" stop-color="#9224FF"/>
</linearGradient>
<linearGradient id="paint2_linear_2341_12591" x1="93.079" y1="29.2265" x2="93.079" y2="243.498" gradientUnits="userSpaceOnUse">
<stop stop-color="#FFC700"/>
<stop offset="1" stop-color="#9224FF"/>
</linearGradient>
</defs>
</svg>
